<svg display="none" xmlns="http://www.w3.org/2000/svg">
    <symbol id="products_decor" viewBox="0 0 451 940">
        <g>
            <path d="M218.508 0C248.903 30.3953 450.19 473.082 450.19 473.082L149.764 939.904H0L185.795 481.761L72.0636 0H218.508Z" fill="currentColor"/>
        </g>
    </symbol>

    <symbol id="cup_symbol" viewBox="0 0 124 175">
        <g>
            <path d="M15.209 17.7474L11.291 16.5965L14.556 5.16892C14.9755 3.70324 15.8775 2.42214 17.1161 1.53324C18.3546 0.644328 19.8571 0.199701 21.3799 0.271409L109.307 6.09945C110.833 6.18924 112.017 7.61768 112.31 9.73177L113.127 16.0577L109.045 16.6046L108.229 10.2787V10.1154L21.135 4.35267C20.5329 4.34237 19.9448 4.53475 19.4651 4.89891C18.9855 5.26308 18.6422 5.77789 18.4904 6.36065L15.209 17.7474Z" fill="currentColor"/>
            <path d="M121.148 33.7869H3.21616C2.8617 33.7866 2.51226 33.7029 2.19607 33.5427C1.87988 33.3825 1.60579 33.1502 1.39592 32.8645C1.18571 32.572 1.04735 32.2341 0.99204 31.8781C0.936734 31.5222 0.96604 31.1582 1.07758 30.8157L5.23231 18.1801C5.53084 17.2726 6.10477 16.4808 6.87427 15.9146C7.64377 15.3484 8.57058 15.0362 9.52579 15.0212H114.822C115.778 15.0362 116.704 15.3484 117.474 15.9146C118.243 16.4808 118.817 17.2726 119.116 18.1801L123.271 30.8076C123.382 31.1501 123.411 31.514 123.356 31.87C123.301 32.2259 123.162 32.5638 122.952 32.8563C122.747 33.1432 122.476 33.3772 122.162 33.5389C121.849 33.7007 121.501 33.7857 121.148 33.7869ZM5.73838 29.7056H118.626L115.239 19.4535C115.211 19.3609 115.157 19.2784 115.083 19.2161C115.009 19.1537 114.918 19.1143 114.822 19.1025H9.52579C9.42982 19.1143 9.33934 19.1537 9.26542 19.2161C9.19149 19.2784 9.13732 19.3609 9.1095 19.4535L5.73838 29.7056Z" fill="currentColor"/>
            <path d="M96.4647 174.582H27.8995C26.8338 174.58 25.8053 174.19 25.0073 173.483C24.2092 172.777 23.6965 171.803 23.5652 170.746L6.60352 32.1054L10.6848 31.6157L27.5975 170.248C27.6056 170.318 27.6392 170.382 27.6919 170.429C27.7446 170.476 27.8128 170.501 27.8832 170.501H96.4484C96.5188 170.501 96.5869 170.476 96.6397 170.429C96.6924 170.382 96.726 170.318 96.7341 170.248L113.704 31.583L117.785 32.0728L100.815 170.746C100.684 171.806 100.169 172.782 99.3672 173.489C98.5657 174.195 97.5333 174.584 96.4647 174.582Z" fill="currentColor"/>
            <path d="M111.455 67.4565H12.9902L21.4548 136.56H102.982L111.455 67.4565Z" fill="currentColor"/>
            <path d="M62.2176 128.538C76.8688 128.538 88.7458 116.661 88.7458 102.009C88.7458 87.3583 76.8688 75.4812 62.2176 75.4812C47.5665 75.4812 35.6895 87.3583 35.6895 102.009C35.6895 116.661 47.5665 128.538 62.2176 128.538Z" fill="white"/>
        </g>
    </symbol>
</svg>