<svg display="none" xmlns="http://www.w3.org/2000/svg">
    <symbol id="products_decor" viewBox="0 0 451 940">
        <g>
            <path d="M218.508 0C248.903 30.3953 450.19 473.082 450.19 473.082L149.764 939.904H0L185.795 481.761L72.0636 0H218.508Z" fill="currentColor"/>
        </g>
    </symbol>

    <symbol id="cup_symbol" viewBox="0 0 124 175">
        <g>
            <path d="M15.209 17.7474L11.291 16.5965L14.556 5.16892C14.9755 3.70324 15.8775 2.42214 17.1161 1.53324C18.3546 0.644328 19.8571 0.199701 21.3799 0.271409L109.307 6.09945C110.833 6.18924 112.017 7.61768 112.31 9.73177L113.127 16.0577L109.045 16.6046L108.229 10.2787V10.1154L21.135 4.35267C20.5329 4.34237 19.9448 4.53475 19.4651 4.89891C18.9855 5.26308 18.6422 5.77789 18.4904 6.36065L15.209 17.7474Z" fill="currentColor"/>
            <path d="M121.148 33.7869H3.21616C2.8617 33.7866 2.51226 33.7029 2.19607 33.5427C1.87988 33.3825 1.60579 33.1502 1.39592 32.8645C1.18571 32.572 1.04735 32.2341 0.99204 31.8781C0.936734 31.5222 0.96604 31.1582 1.07758 30.8157L5.23231 18.1801C5.53084 17.2726 6.10477 16.4808 6.87427 15.9146C7.64377 15.3484 8.57058 15.0362 9.52579 15.0212H114.822C115.778 15.0362 116.704 15.3484 117.474 15.9146C118.243 16.4808 118.817 17.2726 119.116 18.1801L123.271 30.8076C123.382 31.1501 123.411 31.514 123.356 31.87C123.301 32.2259 123.162 32.5638 122.952 32.8563C122.747 33.1432 122.476 33.3772 122.162 33.5389C121.849 33.7007 121.501 33.7857 121.148 33.7869ZM5.73838 29.7056H118.626L115.239 19.4535C115.211 19.3609 115.157 19.2784 115.083 19.2161C115.009 19.1537 114.918 19.1143 114.822 19.1025H9.52579C9.42982 19.1143 9.33934 19.1537 9.26542 19.2161C9.19149 19.2784 9.13732 19.3609 9.1095 19.4535L5.73838 29.7056Z" fill="currentColor"/>
            <path d="M96.4647 174.582H27.8995C26.8338 174.58 25.8053 174.19 25.0073 173.483C24.2092 172.777 23.6965 171.803 23.5652 170.746L6.60352 32.1054L10.6848 31.6157L27.5975 170.248C27.6056 170.318 27.6392 170.382 27.6919 170.429C27.7446 170.476 27.8128 170.501 27.8832 170.501H96.4484C96.5188 170.501 96.5869 170.476 96.6397 170.429C96.6924 170.382 96.726 170.318 96.7341 170.248L113.704 31.583L117.785 32.0728L100.815 170.746C100.684 171.806 100.169 172.782 99.3672 173.489C98.5657 174.195 97.5333 174.584 96.4647 174.582Z" fill="currentColor"/>
            <path d="M111.455 67.4565H12.9902L21.4548 136.56H102.982L111.455 67.4565Z" fill="currentColor"/>
            <path d="M62.2176 128.538C76.8688 128.538 88.7458 116.661 88.7458 102.009C88.7458 87.3583 76.8688 75.4812 62.2176 75.4812C47.5665 75.4812 35.6895 87.3583 35.6895 102.009C35.6895 116.661 47.5665 128.538 62.2176 128.538Z" fill="white"/>
        </g>
    </symbol>

    <symbol id="ruble_symbol" viewBox="0 0 94 126">
        <g>
            <path d="M9.58203 42.2029V78.9817H1H0.5V79.4817V83.4054V83.9054H1H9.58203V103.703H1H0.5V104.203V108.126V108.626H1H9.58203V125V125.5H10.082H14.0301H14.5301V125V108.626H35.747H36.247V108.126V104.203V103.703H35.747H14.5301L14.5314 83.9068H51.5412H52.5286H53.516H53.5294L53.5429 83.9061C75.7145 82.7138 93.5 64.4507 93.5 42.2039V41.9352L93.4976 41.9336C93.3518 19.0185 74.6234 0.5 51.5402 0.5C28.3659 0.5 9.58203 19.1645 9.58203 42.2029ZM88.55 42.2029C88.55 62.1329 72.3904 78.397 52.52 78.9817H14.5304V42.2029C14.5304 21.8801 31.085 5.42409 51.5402 5.42409C71.9964 5.42409 88.55 21.8812 88.55 42.2029Z" fill="currentColor" stroke="currentColor" />
        </g>
    </symbol>

    <symbol id="card_symbol" viewBox="0 0 441 283" fill="none">
        <g>
            <path d="M25.9602 4H415.367C427.315 4 436.999 15.9478 436.999 25.6321V257.221C436.999 269.169 427.315 278.853 415.367 278.853H25.9602C14.0125 278.853 4.32812 266.905 4.32812 257.221V25.6321C4.32812 13.6843 14.0125 4 25.9602 4Z" stroke="currentColor" stroke-width="7.46667" stroke-miterlimit="10" />
            <path d="M355.875 70.4697C358.814 75.559 360.361 81.3309 360.361 87.2088C360.361 93.0867 358.814 98.8586 355.875 103.948" stroke="currentColor" stroke-width="7.46667" stroke-linecap="round" stroke-linejoin="round" />
            <path d="M343.922 77.4465C345.635 80.4118 346.536 83.7809 346.536 87.206C346.536 90.6354 345.635 94.0007 343.922 96.9694" stroke="currentColor" stroke-width="7.46667" stroke-linecap="round" stroke-linejoin="round" />
            <path d="M367.609 63.7632C375.974 78.2729 375.974 96.1397 367.609 110.653" stroke="currentColor" stroke-width="7.46667" stroke-linecap="round" stroke-linejoin="round" />
            <path d="M380.699 56.1914C390.829 75.6131 390.829 98.7541 380.699 118.177" stroke="currentColor" stroke-width="7.46667" stroke-linecap="round" stroke-linejoin="round" />
            <path d="M59.6015 56.1914H110.117C116.093 56.1914 120.933 62.1672 120.933 67.0077V108.978C120.933 114.954 116.089 119.795 110.117 119.795H59.6015C53.6257 119.795 48.7852 113.819 48.7852 108.978V67.0077C48.7852 61.0319 53.6292 56.1914 59.6015 56.1914Z" stroke="currentColor" stroke-width="7.46667" stroke-linecap="round" stroke-linejoin="round" />
        </g>
    </symbol>

</svg>